<?xml version="1.0" encoding="us-ascii" standalone="no"?><svg xmlns="http://www.w3.org/2000/svg" xmlns:xlink="http://www.w3.org/1999/xlink" contentStyleType="text/css" height="49px" preserveAspectRatio="none" style="width:974px;height:49px;background:#FFFFFF;" version="1.1" viewBox="0 0 974 49" width="974px" zoomAndPan="magnify"><defs/><g><!--entity Com--><g id="elem_Com"><rect fill="#F1F1F1" height="36.2969" rx="3.5" ry="3.5" style="stroke:#181818;stroke-width:0.5;" width="148" x="7" y="7"/><text fill="#000000" font-family="sans-serif" font-size="14" lengthAdjust="spacing" textLength="128" x="17" y="29.9951">Commercial Phase</text></g><!--entity I--><g id="elem_I"><rect fill="#F1F1F1" height="36.2969" rx="3.5" ry="3.5" style="stroke:#181818;stroke-width:0.5;" width="131" x="215" y="7"/><text fill="#000000" font-family="sans-serif" font-size="14" lengthAdjust="spacing" textLength="111" x="225" y="29.9951">Inception Phase</text></g><!--entity E--><g id="elem_E"><rect fill="#F1F1F1" height="36.2969" rx="3.5" ry="3.5" style="stroke:#181818;stroke-width:0.5;" width="144" x="406" y="7"/><text fill="#000000" font-family="sans-serif" font-size="14" lengthAdjust="spacing" textLength="124" x="416" y="29.9951">Elaboration Phase</text></g><!--entity Con--><g id="elem_Con"><rect fill="#F1F1F1" height="36.2969" rx="3.5" ry="3.5" style="stroke:#181818;stroke-width:0.5;" width="156" x="610" y="7"/><text fill="#000000" font-family="sans-serif" font-size="14" lengthAdjust="spacing" textLength="136" x="620" y="29.9951">Construction Phase</text></g><!--entity P--><g id="elem_P"><rect fill="#F1F1F1" height="36.2969" rx="3.5" ry="3.5" style="stroke:#181818;stroke-width:0.5;" width="142" x="826" y="7"/><text fill="#000000" font-family="sans-serif" font-size="14" lengthAdjust="spacing" textLength="122" x="836" y="29.9951">Production Phase</text></g><!--link Com to I--><g id="link_Com_I"><path d="M155.26,25.15 C174.8,25.15 189.77,25.15 208.82,25.15 " fill="none" id="Com-to-I" style="stroke:#454645;stroke-width:1.0;"/><polygon fill="#454645" points="214.82,25.15,205.82,21.15,209.82,25.15,205.82,29.15,214.82,25.15" style="stroke:#454645;stroke-width:1.0;"/></g><!--link I to E--><g id="link_I_E"><path d="M346.33,25.15 C365.33,25.15 380.22,25.15 399.61,25.15 " fill="none" id="I-to-E" style="stroke:#454645;stroke-width:1.0;"/><polygon fill="#454645" points="405.61,25.15,396.61,21.15,400.61,25.15,396.61,29.15,405.61,25.15" style="stroke:#454645;stroke-width:1.0;"/></g><!--link E to Con--><g id="link_E_Con"><path d="M550.29,25.15 C569.46,25.15 584.28,25.15 603.76,25.15 " fill="none" id="E-to-Con" style="stroke:#454645;stroke-width:1.0;"/><polygon fill="#454645" points="609.76,25.15,600.76,21.15,604.76,25.15,600.76,29.15,609.76,25.15" style="stroke:#454645;stroke-width:1.0;"/></g><!--link Con to P--><g id="link_Con_P"><path d="M766.37,37.53 C785.78,38.09 800.5042,38.2435 819.5542,37.5335 " fill="none" id="Con-to-P" style="stroke:#454645;stroke-width:1.0;stroke-dasharray:7.0,7.0;"/><polygon fill="#454645" points="825.55,37.31,816.4073,33.648,820.5535,37.4962,816.7052,41.6424,825.55,37.31" style="stroke:#454645;stroke-width:1.0;"/></g><!--link P to Con--><g id="link_P_Con"><path d="M825.55,12.28 C806.5,11.53 791.7772,11.2677 772.3672,11.8577 " fill="none" id="P-to-Con" style="stroke:#454645;stroke-width:1.0;stroke-dasharray:7.0,7.0;"/><polygon fill="#454645" points="766.37,12.04,775.4874,15.7647,771.3677,11.8881,775.2443,7.7684,766.37,12.04" style="stroke:#454645;stroke-width:1.0;"/></g><!--SRC=[POuz3iCm28LtJa6pfqVeKdd8vYiGXoIM_5DXslENP7BJ0Jru-fuUDzqvCtxYB5GK4g-AMb7YjYikKJXeh0NWMAXiYN5urfnPGgI4VgV60r93CtjcAe5VHx93fXvmYUOgT47SRqzfAkzmOSpkAIzr-MCyW3s4u_YmrkbK1-xK8sw3Tziz-5Fj_W80]--></g></svg>